<?xml version="1.0" encoding="UTF-8" standalone="no"?><svg xmlns="http://www.w3.org/2000/svg" xmlns:xlink="http://www.w3.org/1999/xlink" contentScriptType="application/ecmascript" contentStyleType="text/css" height="542px" preserveAspectRatio="none" style="width:616px;height:542px;" version="1.1" viewBox="0 0 616 542" width="616px" zoomAndPan="magnify"><defs><filter height="300%" id="fa8osprt9l77t" width="300%" x="-1" y="-1"><feGaussianBlur result="blurOut" stdDeviation="2.0"/><feColorMatrix in="blurOut" result="blurOut2" type="matrix" values="0 0 0 0 0 0 0 0 0 0 0 0 0 0 0 0 0 0 .4 0"/><feOffset dx="4.0" dy="4.0" in="blurOut2" result="blurOut3"/><feBlend in="SourceGraphic" in2="blurOut3" mode="normal"/></filter></defs><g><!--MD5=[7918b91ee004d04d4586042c915d63c6]
cluster st--><rect fill="#FFFFFF" filter="url(#fa8osprt9l77t)" height="121" style="stroke: #000000; stroke-width: 1.5;" width="250" x="355" y="221.5"/><text fill="#000000" font-family="sans-serif" font-size="14" font-weight="bold" lengthAdjust="spacingAndGlyphs" textLength="54" x="453" y="239.7399">Storage</text><!--MD5=[e8f3788ad7b97e8de68b4194558bc2a1]
cluster db--><rect fill="#FFFFFF" filter="url(#fa8osprt9l77t)" height="120" style="stroke: #000000; stroke-width: 1.5;" width="197" x="351" y="410.5"/><text fill="#000000" font-family="sans-serif" font-size="14" font-weight="bold" lengthAdjust="spacingAndGlyphs" textLength="64" x="417.5" y="428.7399">Database</text><!--MD5=[4ef80439e1ef409f8f3a0ec422262701]
cluster server--><rect fill="#FFFFFF" filter="url(#fa8osprt9l77t)" height="309.5" style="stroke: #000000; stroke-width: 1.5;" width="257" x="30" y="221.5"/><text fill="#000000" font-family="sans-serif" font-size="14" font-weight="bold" lengthAdjust="spacingAndGlyphs" textLength="75" x="121" y="239.7399">WebServer</text><!--MD5=[f28f66ce042a5348627de64d1c4b4bb4]
cluster lb--><rect fill="#FFFFFF" filter="url(#fa8osprt9l77t)" height="121" style="stroke: #000000; stroke-width: 1.5;" width="233" x="270" y="32.5"/><text fill="#000000" font-family="sans-serif" font-size="14" font-weight="bold" lengthAdjust="spacingAndGlyphs" textLength="94" x="339.5" y="50.7399">LoadBalancer</text><!--MD5=[6e1e77bf5986b6e9d7c0d579b23b05ff]
entity NFS2--><polygon fill="#FEFECE" filter="url(#fa8osprt9l77t)" points="507,278.5,517,268.5,581,268.5,581,308.7719,571,318.7719,507,318.7719,507,278.5" style="stroke: #000000; stroke-width: 1.5;"/><line style="stroke: #000000; stroke-width: 1.5;" x1="571" x2="580" y1="278.5" y2="269.5"/><line style="stroke: #000000; stroke-width: 1.5;" x1="507" x2="571" y1="278.5" y2="278.5"/><line style="stroke: #000000; stroke-width: 1.5;" x1="571" x2="571" y1="278.5" y2="318.7719"/><text fill="#000000" font-family="sans-serif" font-size="14" lengthAdjust="spacingAndGlyphs" textLength="34" x="522" y="304.7399">NFS2</text><!--MD5=[34bd7ea5596d898cc6b3d25c97532f3c]
entity NFS1--><polygon fill="#FEFECE" filter="url(#fa8osprt9l77t)" points="398,278.5,408,268.5,472,268.5,472,308.7719,462,318.7719,398,318.7719,398,278.5" style="stroke: #000000; stroke-width: 1.5;"/><line style="stroke: #000000; stroke-width: 1.5;" x1="462" x2="471" y1="278.5" y2="269.5"/><line style="stroke: #000000; stroke-width: 1.5;" x1="398" x2="462" y1="278.5" y2="278.5"/><line style="stroke: #000000; stroke-width: 1.5;" x1="462" x2="462" y1="278.5" y2="318.7719"/><text fill="#000000" font-family="sans-serif" font-size="14" lengthAdjust="spacingAndGlyphs" textLength="34" x="413" y="304.7399">NFS1</text><!--MD5=[15c09bc1019853b240db9097cf2c95bd]
entity DB2--><path d="M476.5,467.5 C476.5,457.5 500,457.5 500,457.5 C500,457.5 523.5,457.5 523.5,467.5 L523.5,496.7719 C523.5,506.7719 500,506.7719 500,506.7719 C500,506.7719 476.5,506.7719 476.5,496.7719 L476.5,467.5 " fill="#FEFECE" filter="url(#fa8osprt9l77t)" style="stroke: #000000; stroke-width: 1.5;"/><path d="M476.5,467.5 C476.5,477.5 500,477.5 500,477.5 C500,477.5 523.5,477.5 523.5,467.5 " fill="none" style="stroke: #000000; stroke-width: 1.5;"/><text fill="#000000" font-family="sans-serif" font-size="14" lengthAdjust="spacingAndGlyphs" textLength="27" x="486.5" y="497.7399">DB2</text><!--MD5=[10fb7f8619e33bbba3e12a51f8fb11e5]
entity DB1--><path d="M394.5,467.5 C394.5,457.5 418,457.5 418,457.5 C418,457.5 441.5,457.5 441.5,467.5 L441.5,496.7719 C441.5,506.7719 418,506.7719 418,506.7719 C418,506.7719 394.5,506.7719 394.5,496.7719 L394.5,467.5 " fill="#FEFECE" filter="url(#fa8osprt9l77t)" style="stroke: #000000; stroke-width: 1.5;"/><path d="M394.5,467.5 C394.5,477.5 418,477.5 418,477.5 C418,477.5 441.5,477.5 441.5,467.5 " fill="none" style="stroke: #000000; stroke-width: 1.5;"/><text fill="#000000" font-family="sans-serif" font-size="14" lengthAdjust="spacingAndGlyphs" textLength="27" x="404.5" y="497.7399">DB1</text><!--MD5=[815145697f903911ac60bbdd9683084f]
entity Web1--><polygon fill="#FEFECE" filter="url(#fa8osprt9l77t)" points="54.5,278.5,64.5,268.5,131.5,268.5,131.5,308.7719,121.5,318.7719,54.5,318.7719,54.5,278.5" style="stroke: #000000; stroke-width: 1.5;"/><line style="stroke: #000000; stroke-width: 1.5;" x1="121.5" x2="130.5" y1="278.5" y2="269.5"/><line style="stroke: #000000; stroke-width: 1.5;" x1="54.5" x2="121.5" y1="278.5" y2="278.5"/><line style="stroke: #000000; stroke-width: 1.5;" x1="121.5" x2="121.5" y1="278.5" y2="318.7719"/><text fill="#000000" font-family="sans-serif" font-size="14" lengthAdjust="spacingAndGlyphs" textLength="37" x="69.5" y="304.7399">Web1</text><!--MD5=[ef1eb05003385837d30cedc44ac4158c]
entity Web2--><polygon fill="#FEFECE" filter="url(#fa8osprt9l77t)" points="166.5,278.5,176.5,268.5,243.5,268.5,243.5,308.7719,233.5,318.7719,166.5,318.7719,166.5,278.5" style="stroke: #000000; stroke-width: 1.5;"/><line style="stroke: #000000; stroke-width: 1.5;" x1="233.5" x2="242.5" y1="278.5" y2="269.5"/><line style="stroke: #000000; stroke-width: 1.5;" x1="166.5" x2="233.5" y1="278.5" y2="278.5"/><line style="stroke: #000000; stroke-width: 1.5;" x1="233.5" x2="233.5" y1="278.5" y2="318.7719"/><text fill="#000000" font-family="sans-serif" font-size="14" lengthAdjust="spacingAndGlyphs" textLength="37" x="181.5" y="304.7399">Web2</text><!--MD5=[a0acf08aab7d1b5d34518fd2d3e9698c]
entity Web3--><polygon fill="#FEFECE" filter="url(#fa8osprt9l77t)" points="54.5,467,64.5,457,131.5,457,131.5,497.2719,121.5,507.2719,54.5,507.2719,54.5,467" style="stroke: #000000; stroke-width: 1.5;"/><line style="stroke: #000000; stroke-width: 1.5;" x1="121.5" x2="130.5" y1="467" y2="458"/><line style="stroke: #000000; stroke-width: 1.5;" x1="54.5" x2="121.5" y1="467" y2="467"/><line style="stroke: #000000; stroke-width: 1.5;" x1="121.5" x2="121.5" y1="467" y2="507.2719"/><text fill="#000000" font-family="sans-serif" font-size="14" lengthAdjust="spacingAndGlyphs" textLength="37" x="69.5" y="493.2399">Web3</text><!--MD5=[a7ab04ab444b490468f263a10c3b1dc6]
entity Web4--><polygon fill="#FEFECE" filter="url(#fa8osprt9l77t)" points="166.5,467,176.5,457,243.5,457,243.5,497.2719,233.5,507.2719,166.5,507.2719,166.5,467" style="stroke: #000000; stroke-width: 1.5;"/><line style="stroke: #000000; stroke-width: 1.5;" x1="233.5" x2="242.5" y1="467" y2="458"/><line style="stroke: #000000; stroke-width: 1.5;" x1="166.5" x2="233.5" y1="467" y2="467"/><line style="stroke: #000000; stroke-width: 1.5;" x1="233.5" x2="233.5" y1="467" y2="507.2719"/><text fill="#000000" font-family="sans-serif" font-size="14" lengthAdjust="spacingAndGlyphs" textLength="37" x="181.5" y="493.2399">Web4</text><!--MD5=[e44e85366d813c634fe2329fde4b183a]
entity LB2--><polygon fill="#FEFECE" filter="url(#fa8osprt9l77t)" points="413.5,89.5,423.5,79.5,478.5,79.5,478.5,119.7719,468.5,129.7719,413.5,129.7719,413.5,89.5" style="stroke: #000000; stroke-width: 1.5;"/><line style="stroke: #000000; stroke-width: 1.5;" x1="468.5" x2="477.5" y1="89.5" y2="80.5"/><line style="stroke: #000000; stroke-width: 1.5;" x1="413.5" x2="468.5" y1="89.5" y2="89.5"/><line style="stroke: #000000; stroke-width: 1.5;" x1="468.5" x2="468.5" y1="89.5" y2="129.7719"/><text fill="#000000" font-family="sans-serif" font-size="14" lengthAdjust="spacingAndGlyphs" textLength="25" x="428.5" y="115.7399">LB2</text><!--MD5=[79e95563e47b772975a3065ce8cf5d51]
entity LB1--><polygon fill="#FEFECE" filter="url(#fa8osprt9l77t)" points="313.5,89.5,323.5,79.5,378.5,79.5,378.5,119.7719,368.5,129.7719,313.5,129.7719,313.5,89.5" style="stroke: #000000; stroke-width: 1.5;"/><line style="stroke: #000000; stroke-width: 1.5;" x1="368.5" x2="377.5" y1="89.5" y2="80.5"/><line style="stroke: #000000; stroke-width: 1.5;" x1="313.5" x2="368.5" y1="89.5" y2="89.5"/><line style="stroke: #000000; stroke-width: 1.5;" x1="368.5" x2="368.5" y1="89.5" y2="129.7719"/><text fill="#000000" font-family="sans-serif" font-size="14" lengthAdjust="spacingAndGlyphs" textLength="25" x="328.5" y="115.7399">LB1</text><!--MD5=[7d46d6cd919e02e6168a09ad91eae8b4]
entity u--><ellipse cx="184" cy="71.5" fill="#FEFECE" filter="url(#fa8osprt9l77t)" rx="8" ry="8" style="stroke: #A80036; stroke-width: 1.5;"/><path d="M184,79.5 L184,106.5 M171,87.5 L197,87.5 M184,106.5 L171,121.5 M184,106.5 L197,121.5 " fill="none" filter="url(#fa8osprt9l77t)" style="stroke: #A80036; stroke-width: 1.5;"/><text fill="#000000" font-family="sans-serif" font-size="14" lengthAdjust="spacingAndGlyphs" textLength="29" x="169.5" y="143.2399">user</text><!--MD5=[ef67c277e64211af1ccc9c988552fb40]
link u to lb--><path d="M198.69,104.5 C211.08,104.5 229.28,104.5 245.1213,104.5 C253.0419,104.5 260.3728,104.5 266.093,104.5 C266.808,104.5 267.4978,104.5 268.1605,104.5 C268.4919,104.5 268.8164,104.5 269.1339,104.5 C269.2927,104.5 269.4497,104.5 269.6049,104.5 C269.6825,104.5 269.7597,104.5 269.8364,104.5 " fill="none" id="u-&gt;lb" style="stroke: #A80036; stroke-width: 1.0;"/><polygon fill="#A80036" points="269.8364,104.5,260.8364,100.5,264.8364,104.5,260.8364,108.5,269.8364,104.5" style="stroke: #A80036; stroke-width: 1.0;"/><text fill="#000000" font-family="sans-serif" font-size="13" lengthAdjust="spacingAndGlyphs" textLength="43" x="216.57" y="97.58">LB(VIP)</text><!--MD5=[00378b52196b2e08816167d7bae5f44c]
link lb to server--><path d="M269.9452,115.6167 C269.8893,115.6909 269.8331,115.7655 269.7768,115.8404 C269.6641,115.9902 269.5506,116.1414 269.4363,116.294 C268.5221,117.5147 267.558,118.8233 266.5558,120.2116 C264.5513,122.9882 262.3947,126.0834 260.1813,129.4312 C251.3275,142.8225 241.565,160.255 237,177.5 C234.72,186.09 231.85,190.26 237,197.5 C243.27,206.32 252.82,197.4 260,205.5 C263.18,209.085 265.8684,213.0775 268.1377,217.3262 C268.7051,218.3884 269.2462,219.4666 269.7622,220.5585 C269.8913,220.8314 270.0187,221.1052 270.1446,221.3799 " fill="none" id="lb-&gt;server" style="stroke: #A80036; stroke-width: 1.0;"/><polygon fill="#A80036" points="270.1446,221.3799,270.0302,211.5317,268.061,216.8347,262.7579,214.8655,270.1446,221.3799" style="stroke: #A80036; stroke-width: 1.0;"/><text fill="#000000" font-family="sans-serif" font-size="13" lengthAdjust="spacingAndGlyphs" textLength="52" x="238" y="193.58">反向代理</text><!--MD5=[00378b52196b2e08816167d7bae5f44c]
link lb to server--><!--MD5=[e3bc9381f3cbe76dcad104a41d1ad89d]
link st to db--><!--MD5=[2927d3a781a947e921db6647bd449b94]
link server to db--><path d="M287.0037,319.257 C287.1727,319.7622 287.3438,320.2729 287.5171,320.7889 C288.2101,322.8527 288.9367,325.0003 289.6938,327.2175 C295.75,344.955 303.75,367.145 312,386.5 C320.91,407.4 332.215,430.225 341.505,448.2063 C343.8275,452.7016 346.0241,456.8941 348.0258,460.6782 C349.0266,462.5703 349.9788,464.3602 350.8736,466.0348 " fill="none" id="server-&gt;db" style="stroke: #A80036; stroke-width: 1.0;"/><polygon fill="#A80036" points="350.8736,466.0348,350.1599,456.2118,348.5171,461.6249,343.1041,459.9821,350.8736,466.0348" style="stroke: #A80036; stroke-width: 1.0;"/><text fill="#000000" font-family="sans-serif" font-size="13" lengthAdjust="spacingAndGlyphs" textLength="39" x="313" y="382.58">数据库</text><!--MD5=[a5e21c3c1d0e10661848ffe8144e0a2c]
link server to st--><path d="M287.1334,293.5 C287.226,293.5 287.3193,293.5 287.4132,293.5 C287.601,293.5 287.7914,293.5 287.9844,293.5 C288.3702,293.5 288.7661,293.5 289.1716,293.5 C290.7934,293.5 292.5684,293.5 294.4658,293.5 C302.0553,293.5 311.6031,293.5 321.1413,293.5 C330.6794,293.5 340.2078,293.5 347.7586,293.5 C349.6463,293.5 351.4104,293.5 353.0201,293.5 C353.4226,293.5 353.8153,293.5 354.198,293.5 C354.3893,293.5 354.5781,293.5 354.7643,293.5 C354.8109,293.5 354.8573,293.5 354.9035,293.5 " fill="none" id="server-&gt;st" style="stroke: #A80036; stroke-width: 1.0;"/><polygon fill="#A80036" points="354.9035,293.5,345.9035,289.5,349.9035,293.5,345.9035,297.5,354.9035,293.5" style="stroke: #A80036; stroke-width: 1.0;"/><text fill="#000000" font-family="sans-serif" font-size="13" lengthAdjust="spacingAndGlyphs" textLength="26" x="308" y="286.58">存储</text><!--MD5=[2dc80fb5175d1d6108e9a8bda4a776ee]
link Web1 to Web2--><!--MD5=[803517c6e0beecf9e2a0516ddf371036]
link Web1 to Web3--><!--MD5=[53c743882dbc633d2895d75374e739c2]
link Web3 to Web4--></g></svg>